# xmcd
#
# Track frame offsets:
#	150
#	23350
#	65252
#	80955
#	104862
#	121102
#	134305
#	155117
#	182959
#	198482
#	211552
#
# Disc length: 3237 seconds
#
# Revision: 0
# Processed by: cddbd v1.4PL0 Copyright (c) Steve Scherf et al.
# Submitted via: dBpowerAMP V4.0
#
DISCID=990ca30b
DTITLE=Alberta Adams - Born with the Blues
DYEAR=1900
DGENRE=Blues
TTITLE0=Tell You Like It Is
TTITLE1=Blues Mood
TTITLE2=He May Be Your Man
TTITLE3=Pair and a Spare
TTITLE4=Goin' Home Tomorrow
TTITLE5=Born With the Blues
TTITLE6=Just a Lucky So and So
TTITLE7=Messin' Around With the Blues
TTITLE8=Half a Man
TTITLE9=I Can Be Good
TTITLE10=Searchin'
EXTD=
EXTT0=
EXTT1=
EXTT2=
EXTT3=
EXTT4=
EXTT5=
EXTT6=
EXTT7=
EXTT8=
EXTT9=
EXTT10=
PLAYORDER=
